<svg xmlns="http://www.w3.org/2000/svg" version="1.1" xmlns:xlink="http://www.w3.org/1999/xlink" width="512" height="512" x="0" y="0" viewBox="0 0 512 512" style="enable-background:new 0 0 512 512" xml:space="preserve"><g><path d="M214.277 303.926h83.447v136.021h-83.447zM342.851 227.33h73.404v76.596h-73.404zM96.191 227.33h73.404v76.596H96.191zM256 134.62l74.433 44.433h160.716l-53.745-107H74.596l-53.745 107h160.716zM50.638 439.947h410.724M50.638 180.053v162.511M461.362 342.308V180.053M462.209 343.819h0c-21.976 0-39.791 17.815-39.791 39.791v16.845c0-14.177-11.493-25.669-25.669-25.669h0c-14.177 0-25.669 11.493-25.669 25.669v39.491H502V383.61c0-21.976-17.815-39.791-39.791-39.791zM49.791 343.819h0c21.976 0 39.791 17.815 39.791 39.791v16.845c0-14.177 11.493-25.669 25.669-25.669h0c14.177 0 25.669 11.493 25.669 25.669v39.491H10V383.61c0-21.976 17.815-39.791 39.791-39.791z" style="stroke-width: 30; stroke-linecap: round; stroke-linejoin: round; stroke-miterlimit: 10;" fill="none" stroke="#000000" stroke-width="30" stroke-linecap="round" stroke-linejoin="round" stroke-miterlimit="10" data-original="#000000"></path></g></svg>