<svg xmlns="http://www.w3.org/2000/svg" version="1.1" xmlns:xlink="http://www.w3.org/1999/xlink" width="512" height="512" x="0" y="0" viewBox="0 0 512 512" style="enable-background:new 0 0 512 512" xml:space="preserve"><g><path d="M63.476 497C36.703 497 15 475.297 15 448.524V15h96.951v433.524c0 26.773-21.703 48.476-48.475 48.476z" style="stroke-width:30;stroke-miterlimit:10;" fill="none" stroke="#000000" stroke-width="30" stroke-miterlimit="10" data-original="#000000"></path><path d="M159.738 497c-26.772 0-48.476-21.703-48.476-48.476V15h96.951v433.524c0 26.773-21.703 48.476-48.475 48.476z" style="stroke-width:30;stroke-miterlimit:10;" fill="none" stroke="#000000" stroke-width="30" stroke-miterlimit="10" data-original="#000000"></path><path d="M256 497c-26.772 0-48.476-21.703-48.476-48.476V15h96.951v433.524C304.476 475.297 282.772 497 256 497z" style="stroke-width:30;stroke-miterlimit:10;" fill="none" stroke="#000000" stroke-width="30" stroke-miterlimit="10" data-original="#000000"></path><path d="M352.262 497c-26.772 0-48.476-21.703-48.476-48.476V15h96.951v433.524c.001 26.773-21.702 48.476-48.475 48.476z" style="stroke-width:30;stroke-miterlimit:10;" fill="none" stroke="#000000" stroke-width="30" stroke-miterlimit="10" data-original="#000000"></path><path d="M448.524 497c-26.772 0-48.476-21.703-48.476-48.476V15H497v433.524C497 475.297 475.297 497 448.524 497zM63.476 339.713C36.703 339.713 15 318.01 15 291.237V15.528h96.951v275.71c0 26.772-21.703 48.475-48.475 48.475z" style="stroke-width:30;stroke-miterlimit:10;" fill="none" stroke="#000000" stroke-width="30" stroke-miterlimit="10" data-original="#000000"></path><path d="M159.738 339.713c-26.772 0-48.476-21.703-48.476-48.475V15.528h96.951v275.71c0 26.772-21.703 48.475-48.475 48.475z" style="stroke-width:30;stroke-miterlimit:10;" fill="none" stroke="#000000" stroke-width="30" stroke-miterlimit="10" data-original="#000000"></path><path d="M256 339.713c-26.772 0-48.476-21.703-48.476-48.475V15.528h96.951v275.71c.001 26.772-21.703 48.475-48.475 48.475z" style="stroke-width:30;stroke-miterlimit:10;" fill="none" stroke="#000000" stroke-width="30" stroke-miterlimit="10" data-original="#000000"></path><path d="M352.262 339.713c-26.772 0-48.476-21.703-48.476-48.475V15.528h96.951v275.71c.001 26.772-21.702 48.475-48.475 48.475z" style="stroke-width:30;stroke-miterlimit:10;" fill="none" stroke="#000000" stroke-width="30" stroke-miterlimit="10" data-original="#000000"></path><path d="M448.524 339.713c-26.772 0-48.476-21.703-48.476-48.475V15.528H497v275.71c0 26.772-21.703 48.475-48.476 48.475zM63.476 186.429C36.703 186.429 15 164.726 15 137.953V15h96.951v122.953c0 26.773-21.703 48.476-48.475 48.476z" style="stroke-width:30;stroke-miterlimit:10;" fill="none" stroke="#000000" stroke-width="30" stroke-miterlimit="10" data-original="#000000"></path><path d="M159.738 186.429c-26.772 0-48.476-21.703-48.476-48.476V15h96.951v122.953c0 26.773-21.703 48.476-48.475 48.476z" style="stroke-width:30;stroke-miterlimit:10;" fill="none" stroke="#000000" stroke-width="30" stroke-miterlimit="10" data-original="#000000"></path><path d="M256 186.429c-26.772 0-48.476-21.703-48.476-48.476V15h96.951v122.953c.001 26.773-21.703 48.476-48.475 48.476z" style="stroke-width:30;stroke-miterlimit:10;" fill="none" stroke="#000000" stroke-width="30" stroke-miterlimit="10" data-original="#000000"></path><path d="M352.262 186.429c-26.772 0-48.476-21.703-48.476-48.476V15h96.951v122.953c.001 26.773-21.702 48.476-48.475 48.476z" style="stroke-width:30;stroke-miterlimit:10;" fill="none" stroke="#000000" stroke-width="30" stroke-miterlimit="10" data-original="#000000"></path><path d="M448.524 186.429c-26.772 0-48.476-21.703-48.476-48.476V15H497v122.953c0 26.773-21.703 48.476-48.476 48.476z" style="stroke-width:30;stroke-miterlimit:10;" fill="none" stroke="#000000" stroke-width="30" stroke-miterlimit="10" data-original="#000000"></path></g></svg>