<svg xmlns="http://www.w3.org/2000/svg" version="1.1" xmlns:xlink="http://www.w3.org/1999/xlink" width="512" height="512" x="0" y="0" viewBox="0 0 512 512" style="enable-background:new 0 0 512 512" xml:space="preserve" class=""><g><path d="M256 497h0c-16.569 0-30-13.431-30-30V237h60v230c0 16.569-13.431 30-30 30zM60.675 135.88v233.814h161.481M451.325 135.88v233.814H289.844M256 15l241 144.31M256 15 15 159.31" style="stroke-width:30;stroke-linecap:round;stroke-linejoin:round;stroke-miterlimit:10;" fill="none" stroke="#000000" stroke-width="30" stroke-linecap="round" stroke-linejoin="round" stroke-miterlimit="10" data-original="#000000"></path><path d="M365.57 236.77V276c0-21.666-17.564-39.23-39.23-39.23H146.43v-80.243h138.896c22.165 0 42.226 8.978 56.741 23.502 14.524 14.515 23.503 34.576 23.503 56.741z" style="stroke-width:30;stroke-linecap:round;stroke-linejoin:round;stroke-miterlimit:10;" fill="none" stroke="#000000" stroke-width="30" stroke-linecap="round" stroke-linejoin="round" stroke-miterlimit="10" data-original="#000000"></path></g></svg>