<svg xmlns="http://www.w3.org/2000/svg" version="1.1" xmlns:xlink="http://www.w3.org/1999/xlink" width="512" height="512" x="0" y="0" viewBox="0 0 512 512" style="enable-background:new 0 0 512 512" xml:space="preserve" class=""><g><path d="M47.433 176.981h417.134V497H47.433zM192.109 71.247h126.085M381.686 71.247h42.881c22.091 0 40 17.909 40 40v65.734H47.433v-65.734c0-22.091 17.909-40 40-40h42.779" style="stroke-width:30;stroke-linecap:round;stroke-linejoin:round;stroke-miterlimit:10;" fill="none" stroke="#000000" stroke-width="30" stroke-linecap="round" stroke-linejoin="round" stroke-miterlimit="10" data-original="#000000"></path><path d="M190.806 117.011V44.358c0-16.214-13.144-29.358-29.358-29.358h0c-16.214 0-29.358 13.144-29.358 29.358v72.653h58.716zM379.91 117.011V44.358C379.91 28.144 366.766 15 350.552 15h0c-16.214 0-29.358 13.144-29.358 29.358v72.653h58.716zM112.055 246.99h26.312M199.248 246.99h26.312M286.44 246.99h26.312M373.633 246.99h26.312M112.055 306.99h26.312M199.248 306.99h26.312M286.44 306.99h26.312M373.633 306.99h26.312M112.055 366.99h26.312M199.248 366.99h26.312M286.44 366.99h26.312M373.633 366.99h26.312M112.055 426.99h26.312M199.248 426.99h26.312M286.44 426.99h26.312M373.633 426.99h26.312" style="stroke-width:30;stroke-linecap:round;stroke-linejoin:round;stroke-miterlimit:10;" fill="none" stroke="#000000" stroke-width="30" stroke-linecap="round" stroke-linejoin="round" stroke-miterlimit="10" data-original="#000000"></path></g></svg>